<svg width="480" height="480" viewBox="0 0 480 480" fill="none" xmlns="http://www.w3.org/2000/svg">
<rect width="480" height="480" fill="black"/>
<path d="M239.05 0C238.129 0.0506642 237.256 0.423153 236.581 1.05243C235.907 1.68171 235.475 2.52781 235.361 3.443C224.138 93.699 216.397 148.583 182.487 182.51C148.578 216.418 93.7081 224.131 3.45116 235.353C2.91694 235.419 2.40199 235.594 1.93815 235.868C1.47431 236.141 1.07146 236.506 0.754496 236.941C0.437535 237.376 0.213213 237.872 0.0954017 238.397C-0.0224099 238.922 -0.0312055 239.466 0.0695609 239.995C-0.0312055 240.524 -0.0224099 241.068 0.0954017 241.593C0.213213 242.118 0.437535 242.614 0.754496 243.049C1.07146 243.484 1.47431 243.849 1.93815 244.123C2.40199 244.396 2.91694 244.571 3.45116 244.637C93.708 255.86 148.578 263.603 182.487 297.512C216.397 331.439 224.138 386.291 235.361 476.547C235.428 477.078 235.602 477.59 235.873 478.052C236.145 478.513 236.507 478.914 236.939 479.231C237.37 479.548 237.862 479.773 238.384 479.893C238.905 480.013 239.446 480.025 239.973 479.929C240.501 480.03 241.045 480.021 241.571 479.903C242.096 479.785 242.591 479.561 243.026 479.244C243.461 478.927 243.827 478.524 244.1 478.06C244.373 477.596 244.548 477.081 244.614 476.547C255.838 386.291 263.58 331.427 297.489 297.512C331.41 263.602 386.299 255.86 476.555 244.637C477.087 244.567 477.599 244.389 478.059 244.114C478.519 243.839 478.918 243.473 479.232 243.039C479.546 242.604 479.768 242.11 479.883 241.587C479.999 241.063 480.007 240.522 479.906 239.995C480.007 239.469 479.999 238.927 479.883 238.404C479.768 237.88 479.546 237.386 479.232 236.951C478.918 236.517 478.519 236.151 478.059 235.876C477.599 235.601 477.087 235.423 476.555 235.353C386.299 224.131 331.41 216.419 297.489 182.51C263.579 148.588 255.838 93.699 244.614 3.443C244.544 2.9115 244.367 2.39992 244.092 1.93963C243.817 1.47934 243.451 1.08005 243.016 0.766268C242.582 0.452484 242.087 0.230819 241.564 0.114872C241.041 -0.00107471 240.499 -0.00885714 239.973 0.092001C239.67 0.0257896 239.36 -0.0044199 239.05 0.00200081V0Z" fill="white"/>
</svg>
